<svg width="48" height="48" viewBox="0 0 48 48" fill="none" xmlns="http://www.w3.org/2000/svg">
<path d="M44.1034 3.8967C49.7244 9.51768 49.1922 19.1632 42.9725 25.3829L31.664 36.6915L11.3086 16.3361L22.6171 5.02756C28.8368 -1.19214 38.4824 -1.72428 44.1034 3.8967Z" fill="#FFD11A"/>
<path d="M20.3554 48L0 27.6446C6.24554 21.3991 15.8653 20.8928 21.4862 26.5138C27.1072 32.1347 26.6009 41.7545 20.3554 48Z" fill="#404040"/>
<path d="M41.8398 46.8691L21.4844 26.5138C27.7299 20.2682 37.3496 19.7619 42.9706 25.3829C48.5916 31.0039 48.0853 40.6236 41.8398 46.8691Z" fill="#FFD11A"/>
<path d="M21.4882 26.5138L1.13281 6.15841C7.37835 -0.0871181 16.9981 -0.593417 22.6191 5.02756C28.24 10.6485 27.7337 20.2682 21.4882 26.5138Z" fill="#FFD11A"/>
</svg>
